<svg width="1069" height="620" viewBox="0 0 1069 620" fill="none" xmlns="http://www.w3.org/2000/svg">
<path fill-rule="evenodd" clip-rule="evenodd" d="M966.915 585.342H102.084V32.7329C102.084 14.2971 118.376 0 136.754 0L932.244 0C950.623 0 966.915 14.2971 966.915 32.7329V585.342Z" fill="#E7E6F2"/>
<path d="M102.584 586.767V32.7329C102.584 14.6103 118.613 0.5 136.754 0.5H932.244C950.385 0.5 966.415 14.6103 966.415 32.7329V586.767H102.584Z" stroke="#BCBACD"/>
<path fill-rule="evenodd" clip-rule="evenodd" d="M0 585.342H1069V604.596C1069 605.83 1068.38 607.969 1067.35 608.647C1053.91 617.5 1039.81 620 1026.63 620H42.3748C29.1873 620 15.0866 617.5 1.65035 608.647C0.62009 607.969 0 605.83 0 604.596V585.342Z" fill="#F2F1FA"/>
<path d="M0.5 585.842H1068.5V604.596C1068.5 605.145 1068.36 605.929 1068.09 606.658C1067.82 607.405 1067.45 607.982 1067.07 608.23C1053.74 617.013 1039.75 619.5 1026.63 619.5H42.3748C29.2524 619.5 15.2564 617.013 1.92543 608.23C1.54837 607.981 1.18228 607.405 0.908243 606.658C0.641052 605.929 0.5 605.145 0.5 604.596V585.842Z" stroke="#BCBACD"/>
<path fill-rule="evenodd" clip-rule="evenodd" d="M534.501 28.8827C537.16 28.8827 539.316 26.7272 539.316 24.0683C539.316 21.4094 537.16 19.2539 534.501 19.2539C531.841 19.2539 529.686 21.4094 529.686 24.0683C529.686 26.7272 531.841 28.8827 534.501 28.8827Z" fill="#ADABC3"/>
<path fill-rule="evenodd" clip-rule="evenodd" d="M127.125 44.2852H941.876V552.608H127.125V44.2852Z" fill="white"/>
</svg>
