<svg width="1072" height="242" viewBox="0 0 1072 242" fill="none" xmlns="http://www.w3.org/2000/svg">
<rect width="1072" height="242" rx="8" fill="#BEE8FF"/>
<rect width="1072" height="128" transform="translate(0 114)" fill="#E5D1FF"/>
<path d="M245.749 99.5961C245.749 99.5961 246.793 96.4594 249.255 94.4914C249.728 94.1139 250.62 93.7354 251.755 93.3702C260.445 90.5729 270.241 92.7838 276.969 98.9546C278.026 99.9235 278.88 100.837 279.36 101.604C280.946 104.139 283.36 112.427 281.68 116.951C277.675 127.728 267.285 126.482 264.578 125.867C263.306 125.579 260.208 124.759 260.208 124.759C260.208 124.759 253.131 130.602 244.615 126.121C238.131 122.709 238.934 117.609 238.934 117.609C238.934 117.609 234.569 113.243 236.459 107.163C238.737 99.841 245.749 99.5961 245.749 99.5961Z" fill="#BA68C8"/>
<path d="M248.77 119.495C248.77 119.495 250.187 119.413 250.772 119.246C251.356 119.078 252.147 118.58 252.147 118.58C252.147 118.58 257.625 124.312 258.193 124.793C258.747 125.261 259.4 118.12 259.4 118.12C259.4 118.12 260.65 118.313 261.819 118.129C263.357 117.884 264.406 117.394 264.406 117.394C264.406 117.394 263.658 121.79 263.366 123.457C263.181 124.527 263.117 127.5 263.117 127.5L259.112 130.834L256.066 128.789C256.066 128.789 256.057 127.986 255.606 127.44C254.205 125.747 248.77 119.495 248.77 119.495ZM262.739 129.296L265.785 125.627C265.785 125.627 266.868 125.708 267.663 125.708C268.454 125.708 269.833 125.541 269.833 125.541C269.833 125.541 267.332 128.918 265.996 130.585C264.659 132.252 262.911 134.341 262.911 134.341L261.243 129.502L262.739 129.296Z" fill="#6D4B41"/>
<path d="M260.576 126.374C259.33 126.486 256.073 128.793 256.073 128.793C256.073 128.793 256.24 132.712 256.116 134.925C255.991 137.138 255.119 140.752 255.922 141.667C256.618 142.457 262.471 142.608 263.343 141.688C264.22 140.769 263.369 136.97 263.369 134.508C263.369 132.046 263.12 127.5 263.12 127.5C263.12 127.5 261.994 126.25 260.576 126.374Z" fill="#865B50"/>
<path d="M569.749 96.5961C569.749 96.5961 570.793 93.4594 573.255 91.4914C573.728 91.1139 574.62 90.7354 575.755 90.3702C584.445 87.5729 594.241 89.7838 600.969 95.9546C602.026 96.9235 602.88 97.8372 603.36 98.6042C604.946 101.139 607.36 109.427 605.68 113.951C601.675 124.728 591.285 123.482 588.578 122.867C587.306 122.579 584.208 121.759 584.208 121.759C584.208 121.759 577.131 127.602 568.615 123.121C562.131 119.709 562.934 114.609 562.934 114.609C562.934 114.609 558.569 110.243 560.459 104.163C562.737 96.841 569.749 96.5961 569.749 96.5961Z" fill="#BA68C8"/>
<path d="M572.77 116.495C572.77 116.495 574.187 116.413 574.772 116.246C575.356 116.078 576.147 115.58 576.147 115.58C576.147 115.58 581.625 121.312 582.193 121.793C582.747 122.261 583.4 115.12 583.4 115.12C583.4 115.12 584.65 115.313 585.819 115.129C587.357 114.884 588.406 114.394 588.406 114.394C588.406 114.394 587.658 118.79 587.366 120.457C587.181 121.527 587.117 124.5 587.117 124.5L583.112 127.834L580.066 125.789C580.066 125.789 580.057 124.986 579.606 124.44C578.205 122.747 572.77 116.495 572.77 116.495ZM586.739 126.296L589.785 122.627C589.785 122.627 590.868 122.708 591.663 122.708C592.454 122.708 593.833 122.541 593.833 122.541C593.833 122.541 591.332 125.918 589.996 127.585C588.659 129.252 586.911 131.341 586.911 131.341L585.243 126.502L586.739 126.296Z" fill="#6D4B41"/>
<path d="M584.576 123.374C583.33 123.486 580.073 125.793 580.073 125.793C580.073 125.793 580.24 129.712 580.116 131.925C579.991 134.138 579.119 137.752 579.922 138.667C580.618 139.457 586.471 139.608 587.343 138.688C588.22 137.769 587.369 133.97 587.369 131.508C587.369 129.046 587.12 124.5 587.12 124.5C587.12 124.5 585.994 123.25 584.576 123.374Z" fill="#865B50"/>
<path d="M613.749 80.5961C613.749 80.5961 614.793 77.4594 617.255 75.4914C617.728 75.1139 618.62 74.7354 619.755 74.3702C628.445 71.5729 638.241 73.7838 644.969 79.9546C646.026 80.9235 646.88 81.8372 647.36 82.6042C648.946 85.1394 651.36 93.4266 649.68 97.9512C645.675 108.728 635.285 107.482 632.578 106.867C631.306 106.579 628.208 105.759 628.208 105.759C628.208 105.759 621.131 111.602 612.615 107.121C606.131 103.709 606.934 98.6086 606.934 98.6086C606.934 98.6086 602.569 94.243 604.459 88.1629C606.737 80.841 613.749 80.5961 613.749 80.5961Z" fill="#BA68C8"/>
<path d="M616.77 100.495C616.77 100.495 618.187 100.413 618.772 100.246C619.356 100.078 620.147 99.5795 620.147 99.5795C620.147 99.5795 625.625 105.312 626.193 105.793C626.747 106.261 627.4 99.1197 627.4 99.1197C627.4 99.1197 628.65 99.3131 629.819 99.1283C631.357 98.8834 632.406 98.3936 632.406 98.3936C632.406 98.3936 631.658 102.789 631.366 104.456C631.181 105.526 631.117 108.5 631.117 108.5L627.112 111.834L624.066 109.789C624.066 109.789 624.057 108.985 623.606 108.44C622.205 106.747 616.77 100.495 616.77 100.495ZM630.739 110.296L633.785 106.626C633.785 106.626 634.868 106.708 635.663 106.708C636.454 106.708 637.833 106.54 637.833 106.54C637.833 106.54 635.332 109.918 633.996 111.585C632.659 113.252 630.911 115.34 630.911 115.34L629.243 110.502L630.739 110.296Z" fill="#6D4B41"/>
<path d="M628.576 107.374C627.33 107.486 624.073 109.794 624.073 109.794C624.073 109.794 624.24 113.712 624.116 115.925C623.991 118.138 623.119 121.752 623.922 122.667C624.618 123.458 630.471 123.608 631.343 122.689C632.22 121.769 631.369 117.971 631.369 115.508C631.369 113.046 631.12 108.5 631.12 108.5C631.12 108.5 629.994 107.25 628.576 107.374Z" fill="#865B50"/>
<path d="M384.119 32.0551H384.116C384.116 32.0288 384.119 32.0026 384.119 31.9763C384.119 28.3951 381.217 25.4888 377.632 25.4888C377.171 25.4888 376.721 25.5376 376.289 25.6313C375.003 22.5038 371.932 20.2988 368.339 20.2988C365.643 20.2988 363.239 21.5438 361.664 23.4863C360.619 22.9546 359.463 22.6771 358.289 22.6763C354.408 22.6763 351.221 25.6313 350.849 29.4151C346.631 29.6401 343.244 33.0976 343.188 37.3913C343.128 41.8613 346.709 45.5363 351.179 45.5926C351.528 45.5963 351.866 45.5738 352.203 45.5326C353.932 49.1776 357.641 51.6976 361.942 51.6976C364.537 51.6976 366.914 50.7788 368.774 49.2526C370.196 50.3063 371.951 50.9363 373.856 50.9363C377.763 50.9363 381.052 48.3151 382.076 44.7338C382.721 44.9476 383.407 45.0676 384.123 45.0676C387.716 45.0676 390.629 42.1538 390.629 38.5613C390.626 34.9688 387.716 32.0551 384.119 32.0551Z" fill="#E3EBEE"/>
<path d="M387.942 33.2964C389.416 34.7851 388.373 38.1976 387.361 39.3114C385.366 41.4976 381.706 40.9876 380.236 40.6726C379.838 40.5864 379.775 40.6164 379.643 40.6951C379.527 40.7664 379.475 40.8789 379.347 41.1451C378.875 42.1651 377.652 44.1414 375.072 44.9364C372.383 45.7651 369.848 44.5014 368.663 43.7476C368.213 43.4626 368.195 43.4551 367.992 43.4589C367.786 43.4626 367.583 43.6126 367.34 43.8039C366.267 44.6476 363.818 46.1364 360.042 45.9189C356.341 45.7051 354.222 43.4251 353.495 42.2514C353.356 42.0264 353.206 41.8389 353.033 41.8201C352.835 41.8014 352.613 42.0039 352.448 42.1689C350.873 43.7026 345.916 44.1639 344.273 41.5501C345.946 44.2314 348.53 45.5589 351.181 45.5926C351.53 45.5964 351.867 45.5739 352.205 45.5326C353.933 49.1776 357.642 51.6976 361.943 51.6976C364.538 51.6976 366.916 50.7789 368.776 49.2526C370.197 50.3064 371.952 50.9364 373.857 50.9364C377.765 50.9364 381.053 48.3151 382.077 44.7339C382.722 44.9476 383.408 45.0676 384.125 45.0676C387.717 45.0676 390.631 42.1539 390.631 38.5614C390.623 36.6489 389.663 34.4889 387.942 33.2964Z" fill="#B9CDD2"/>
<path d="M612.126 57.2058H612.124C612.124 57.1872 612.126 57.1686 612.126 57.15C612.126 54.6133 610.07 52.5547 607.531 52.5547C607.204 52.5547 606.886 52.5892 606.58 52.6556C605.669 50.4403 603.493 48.8784 600.949 48.8784C599.039 48.8784 597.336 49.7603 596.221 51.1362C595.48 50.7596 594.661 50.563 593.83 50.5625C591.081 50.5625 588.823 52.6556 588.56 55.3358C585.572 55.4951 583.173 57.9442 583.133 60.9856C583.091 64.1519 585.628 66.755 588.794 66.7948C589.041 66.7975 589.28 66.7815 589.519 66.7523C590.743 69.3342 593.371 71.1192 596.417 71.1192C598.255 71.1192 599.939 70.4684 601.257 69.3873C602.264 70.1337 603.507 70.58 604.856 70.58C607.624 70.58 609.953 68.7233 610.679 66.1865C611.136 66.338 611.622 66.423 612.129 66.423C614.674 66.423 616.738 64.359 616.738 61.8144C616.735 59.2697 614.674 57.2058 612.126 57.2058Z" fill="#E3EBEE"/>
<path d="M614.834 58.085C615.878 59.1395 615.14 61.5567 614.423 62.3456C613.01 63.8942 610.417 63.5329 609.376 63.3098C609.094 63.2487 609.049 63.27 608.956 63.3257C608.874 63.3762 608.837 63.4559 608.746 63.6445C608.412 64.367 607.546 65.7668 605.718 66.33C603.814 66.917 602.018 66.0218 601.179 65.4879C600.86 65.2861 600.847 65.2807 600.703 65.2834C600.557 65.2861 600.414 65.3923 600.241 65.5278C599.481 66.1254 597.747 67.18 595.072 67.0259C592.45 66.8745 590.949 65.2595 590.434 64.4281C590.336 64.2687 590.23 64.1359 590.107 64.1226C589.967 64.1093 589.81 64.2528 589.693 64.3696C588.577 65.4561 585.066 65.7828 583.902 63.9314C585.087 65.8306 586.917 66.7709 588.795 66.7948C589.042 66.7975 589.281 66.7815 589.52 66.7523C590.745 69.3342 593.372 71.1192 596.419 71.1192C598.257 71.1192 599.941 70.4684 601.258 69.3873C602.265 70.1337 603.508 70.58 604.857 70.58C607.625 70.58 609.955 68.7232 610.68 66.1865C611.137 66.3379 611.623 66.4229 612.13 66.4229C614.675 66.4229 616.739 64.359 616.739 61.8143C616.734 60.4596 616.054 58.9296 614.834 58.085Z" fill="#B9CDD2"/>
<path d="M385.002 78.8712C385.002 78.8712 386.368 74.765 389.592 72.1887C390.723 71.2841 393.7 70.375 397.087 69.5761C405.972 67.48 415.385 69.5214 422.531 75.2028C425.374 77.4633 427.917 79.7674 429.002 81.5C431.077 84.8187 434.237 95.6675 432.038 101.591C426.795 115.698 413.194 114.067 409.65 113.262C407.985 112.886 403.93 111.811 403.93 111.811C403.93 111.811 394.665 119.461 383.517 113.594C375.028 109.128 376.08 102.451 376.08 102.451C376.08 102.451 370.365 96.7362 372.84 88.7768C375.822 79.1918 385.002 78.8712 385.002 78.8712Z" fill="#BA68C8"/>
<path d="M388.953 104.921C388.953 104.921 390.809 104.814 391.574 104.594C392.339 104.375 393.374 103.722 393.374 103.722C393.374 103.722 400.546 111.226 401.289 111.856C402.014 112.469 402.869 103.121 402.869 103.121C402.869 103.121 404.506 103.374 406.036 103.132C408.05 102.811 409.422 102.17 409.422 102.17C409.422 102.17 408.444 107.924 408.061 110.107C407.819 111.507 407.735 115.4 407.735 115.4L402.492 119.765L398.504 117.087C398.504 117.087 398.493 116.036 397.902 115.321C396.069 113.105 388.953 104.921 388.953 104.921ZM407.24 117.751L411.228 112.947C411.228 112.947 412.646 113.054 413.686 113.054C414.721 113.054 416.527 112.835 416.527 112.835C416.527 112.835 413.253 117.256 411.504 119.439C409.754 121.621 407.465 124.355 407.465 124.355L405.282 118.021L407.24 117.751Z" fill="#6D4B41"/>
<path d="M404.407 113.926C402.776 114.073 398.512 117.093 398.512 117.093C398.512 117.093 398.732 122.223 398.568 125.12C398.405 128.017 397.263 132.748 398.315 133.946C399.227 134.981 406.888 135.178 408.03 133.974C409.177 132.77 408.063 127.798 408.063 124.575C408.063 121.351 407.737 115.4 407.737 115.4C407.737 115.4 406.263 113.763 404.407 113.926Z" fill="#865B50"/>
<path d="M1005.74 220.532H1007.6V222.492H1005.74V220.532ZM1006.65 215.8C1008.53 215.8 1009.89 216.878 1009.89 218.446C1009.89 219.986 1008.53 221.064 1006.65 221.064C1004.78 221.064 1003.42 219.986 1003.42 218.446C1003.42 216.878 1004.78 215.8 1006.65 215.8ZM1006.65 217.2C1005.77 217.2 1005.15 217.648 1005.15 218.446C1005.15 219.23 1005.77 219.678 1006.65 219.678C1007.55 219.678 1008.15 219.23 1008.15 218.446C1008.15 217.648 1007.55 217.2 1006.65 217.2ZM1011.22 215.296H1013.08V225.18H1011.22V215.296ZM1012.42 219.356H1014.7V220.882H1012.42V219.356ZM1004.43 226.524H1013.51V228.022H1004.43V226.524ZM1004.43 224.326H1006.3V227.168H1004.43V224.326ZM1002.96 223.5L1002.75 222.016C1004.94 222.016 1007.98 222.002 1010.53 221.638L1010.66 222.968C1008.04 223.458 1005.1 223.5 1002.96 223.5ZM1018.65 222.842H1020.47V225.894H1018.65V222.842ZM1022.75 222.828H1024.57V225.894H1022.75V222.828ZM1015.68 225.306H1027.41V226.818H1015.68V225.306ZM1017 216.122H1026.1V220.42H1018.87V222.618H1017.02V218.964H1024.25V217.592H1017V216.122ZM1017.02 221.834H1026.39V223.332H1017.02V221.834ZM1030.97 217.047L1030.75 223.958H1029.11L1028.87 217.047H1030.97ZM1028.82 226.098C1028.82 225.806 1028.92 225.564 1029.12 225.373C1029.33 225.177 1029.59 225.079 1029.93 225.079C1030.26 225.079 1030.53 225.177 1030.73 225.373C1030.93 225.564 1031.03 225.806 1031.03 226.098C1031.03 226.38 1030.93 226.619 1030.73 226.815C1030.53 227.011 1030.26 227.109 1029.93 227.109C1029.59 227.109 1029.33 227.011 1029.12 226.815C1028.92 226.619 1028.82 226.38 1028.82 226.098Z" fill="#1C1B1F"/>
<path d="M992.086 148.468H1003.9C1006.07 148.468 1007.6 148.262 1007.6 150.453V146.483C1007.6 144.292 1006.07 142.513 1003.9 142.513H988.148C984.21 142.513 981.093 146.731 982.241 152.438C982.241 152.438 985.768 171.046 986.016 172.203C986.671 175.264 990.198 178.242 993.973 178.242H1007.67C1009.85 178.242 1007.6 174.478 1007.6 172.287V168.317C1007.6 170.508 1006.07 172.287 1003.9 172.287H996.025C993.851 172.287 992.415 170.219 992.086 168.317C991.758 166.415 988.967 153.762 988.967 153.762C988.312 149.957 989.911 148.468 992.086 148.468ZM1042.91 148.468H1031.1C1028.92 148.468 1025.32 148.262 1025.32 150.453V146.483C1025.32 144.292 1028.92 142.513 1031.1 142.513H1046.85C1050.79 142.513 1053.91 146.731 1052.76 152.438C1052.76 152.438 1049.54 171.134 1049.27 172.287C1048.57 175.264 1045.25 178.242 1041.39 178.242H1027.32C1025.15 178.242 1025.32 174.478 1025.32 172.287V168.317C1025.32 170.508 1028.92 172.287 1031.1 172.287H1038.97C1041.15 172.287 1042.59 170.219 1042.91 168.317C1043.24 166.415 1046.03 153.762 1046.03 153.762C1046.69 149.957 1045.09 148.468 1042.91 148.468ZM1023.02 182.211C1023.02 168.4 1017.68 182.211 1017.68 182.211C1017.68 182.211 1011.78 168.4 1011.78 182.211C1011.78 196.022 1005.3 202.06 1005.3 202.06H1029.5C1029.5 202.06 1023.02 196.022 1023.02 182.211Z" fill="#82ACF5"/>
<path d="M1035.16 204.045C1035.16 206.237 1035.61 208.015 1033.44 208.015H1001.93C999.756 208.015 999.721 206.237 999.721 204.045V202.06C999.721 199.869 1002.01 198.091 1004.06 198.091H1031.47C1033.52 198.091 1035.16 199.869 1035.16 202.06V204.045Z" fill="#828282"/>
<path d="M1039.1 207.271C1039.1 208.779 1039.43 210 1036.64 210H998.732C996.188 210 995.782 208.779 995.782 207.271V206.775C995.782 205.266 997.236 204.045 998.732 204.045H1036.64C1038.13 204.045 1039.1 205.266 1039.1 206.775V207.271Z" fill="#828282"/>
<path fill-rule="evenodd" clip-rule="evenodd" d="M1017.68 187.708C1026.01 187.708 1039.34 165.046 1039.34 151.598C1039.34 140.358 1037.21 138.998 1031.47 139L1017.68 139.002C1015.56 139.002 1011.88 139.018 1008.52 139.032C1005.73 139.044 1003.16 139.056 1001.93 139.056C997.994 139.056 996.025 141.287 996.025 151.598C996.025 165.046 1009.35 187.708 1017.68 187.708ZM1016.83 151.598L1013.78 155.016L1011.78 156.864H1015L1016.83 155.016V168.568H1019.89V151.598H1016.83Z" fill="#2D9CDB"/>
<rect x="1008" y="147" width="17" height="27" fill="#2D9CDB"/>
</svg>
