<svg width="77" height="73" viewBox="0 0 77 73" fill="none" xmlns="http://www.w3.org/2000/svg">
<path opacity="0.6" d="M39.6346 71.6969C51.6111 71.6969 61.3199 70.8085 61.3199 69.7125C61.3199 68.6165 51.6111 67.728 39.6346 67.728C27.6581 67.728 17.9492 68.6165 17.9492 69.7125C17.9492 70.8085 27.6581 71.6969 39.6346 71.6969Z" fill="#40A45D"/>
<path d="M51.9742 25.0672C54.2003 23.2196 54.2003 20.1952 51.9742 18.3477L51.5742 18.0157C50.8517 17.416 49.681 17.416 48.9586 18.0157L44.7891 21.4762" fill="#A5BFC4"/>
<path d="M51.9742 25.0672C54.2003 23.2196 54.2003 20.1952 51.9742 18.3477L51.5742 18.0157C50.8517 17.416 49.681 17.416 48.9586 18.0157L44.7891 21.4762" stroke="black" stroke-miterlimit="10" stroke-linecap="round"/>
<path fill-rule="evenodd" clip-rule="evenodd" d="M14.578 56.0512C9.58047 56.0512 5.49219 52.5898 5.49219 48.3602V36.2631C5.49219 32.0329 9.58047 28.5723 14.578 28.5723C19.5747 28.5723 23.6637 32.0329 23.6637 36.2631V48.3602C23.6637 52.5898 19.5747 56.0512 14.578 56.0512Z" fill="#FCE47E"/>
<path d="M14.578 56.0512C9.58047 56.0512 5.49219 52.5898 5.49219 48.3602V36.2631C5.49219 32.0329 9.58047 28.5723 14.578 28.5723C19.5747 28.5723 23.6637 32.0329 23.6637 36.2631V48.3602C23.6637 52.5898 19.5747 56.0512 14.578 56.0512Z" stroke="black"/>
<path fill-rule="evenodd" clip-rule="evenodd" d="M17.2167 56.0508C12.2792 56.0508 7.83534 57.8395 4.73828 60.692C7.83534 63.5438 12.2792 65.3326 17.2167 65.3326C22.154 65.3326 26.5979 63.5438 29.695 60.692C26.5979 57.8395 22.154 56.0508 17.2167 56.0508Z" fill="#A5BFC4"/>
<mask id="mask0_2237_6887" style="mask-type:alpha" maskUnits="userSpaceOnUse" x="4" y="56" width="20" height="10">
<path fill-rule="evenodd" clip-rule="evenodd" d="M23.8875 64.2208C21.8727 64.9363 19.6599 65.332 17.3377 65.332C12.4003 65.332 7.95644 63.5432 4.85938 60.6914C7.95644 57.8383 12.4003 56.0503 17.3377 56.0503C19.6599 56.0503 21.8727 56.4457 23.8875 57.1612V64.2208Z" fill="white"/>
</mask>
<g mask="url(#mask0_2237_6887)">
<path fill-rule="evenodd" clip-rule="evenodd" d="M0.046875 67.7341H8.66669V51.4878H0.046875V67.7341Z" fill="#6C888C"/>
<path fill-rule="evenodd" clip-rule="evenodd" d="M11.6602 67.4541H16.117V51.2085H11.6602V67.4541Z" fill="#6C888C"/>
<path fill-rule="evenodd" clip-rule="evenodd" d="M19.4297 67.4541H23.8866V51.2085H19.4297V67.4541Z" fill="#6C888C"/>
</g>
<path d="M30.9252 60.6911L31.4578 61.1619L32.0385 60.6911L31.4578 60.2203L30.9252 60.6911ZM17.2932 55.3984C12.9105 55.3984 8.72794 56.5554 5.20324 58.7435L6.11398 59.7947C9.37369 57.7711 13.237 56.702 17.2932 56.702V55.3984ZM5.20324 58.7435C4.46735 59.2015 4.04297 59.916 4.04297 60.6911H5.58297C5.58297 60.3271 5.77615 60.005 6.11398 59.7947L5.20324 58.7435ZM4.04297 60.6911C4.04297 61.4666 4.46698 62.1799 5.20382 62.6377L6.11513 61.5869C5.77652 61.3765 5.58297 61.0546 5.58297 60.6911H4.04297ZM5.20382 62.6377C8.72762 64.8259 12.9104 65.9838 17.2932 65.9838V64.6803C13.2371 64.6803 9.374 63.6105 6.11513 61.5869L5.20382 62.6377ZM17.2932 65.9838C22.5712 65.9838 27.6617 64.2385 31.4578 61.1619L30.3927 60.2203C26.8814 63.0662 22.1717 64.6803 17.2932 64.6803V65.9838ZM31.4578 60.2203C27.6617 57.1437 22.5712 55.3984 17.2932 55.3984V56.702C22.1717 56.702 26.8814 58.316 30.3927 61.1619L31.4578 60.2203Z" fill="black"/>
<path fill-rule="evenodd" clip-rule="evenodd" d="M57.9414 38.2626L62.5534 38.1973C65.2275 38.1973 67.3958 40.0328 67.3958 42.2963C67.3958 44.5607 65.2275 46.3954 62.5534 46.3954H60.6975H57.9992" fill="#A5BFC4"/>
<path d="M57.9414 38.2626L62.5534 38.1973C65.2275 38.1973 67.3958 40.0328 67.3958 42.2963C67.3958 44.5607 65.2275 46.3954 62.5534 46.3954H60.6975H57.9992" stroke="black"/>
<path fill-rule="evenodd" clip-rule="evenodd" d="M58.6308 46.3961H47.4375L47.8881 38.2634L58.6308 38.1973" fill="white"/>
<path fill-rule="evenodd" clip-rule="evenodd" d="M56.0501 58.6221V63.1176C56.0501 66.0587 53.234 68.4433 49.7595 68.4433C46.2857 68.4433 43.4688 66.0587 43.4688 63.1176V61.0767V62.6798" fill="#A5BFC4"/>
<path d="M56.049 58.2173V62.9456C56.049 65.9821 53.141 68.4435 49.554 68.4435C45.9667 68.4435 43.0586 65.9821 43.0586 62.9456V59.5183" stroke="black" stroke-linecap="round" stroke-linejoin="round"/>
<path fill-rule="evenodd" clip-rule="evenodd" d="M46.1405 52.3397C45.0372 52.3397 43.964 52.2338 42.9533 52.0153C41.6512 51.7336 40.8646 50.6101 41.1974 49.5071C41.5294 48.4042 42.8543 47.739 44.1605 48.0201C46.9726 48.6296 50.9334 47.7706 53.7903 45.9331C55.7775 44.6543 56.9384 43.0971 56.9741 41.6595C57.0261 39.5272 49.6882 36.6191 43.0687 35.343C41.7575 35.0902 40.9361 33.9859 41.2339 32.876C41.5319 31.7655 42.8332 31.0681 44.1476 31.3223C47.1309 31.8955 62.0082 35.0901 61.8434 41.7462C61.776 44.4886 59.9617 47.1419 56.7371 49.2164C53.6149 51.2245 49.7182 52.3397 46.1405 52.3397Z" fill="#FCE47E"/>
<path d="M46.1405 52.3397C45.0372 52.3397 43.964 52.2338 42.9533 52.0153C41.6512 51.7336 40.8646 50.6101 41.1974 49.5071C41.5294 48.4042 42.8543 47.739 44.1605 48.0201C46.9726 48.6296 50.9334 47.7706 53.7903 45.9331C55.7775 44.6543 56.9384 43.0971 56.9741 41.6595C57.0261 39.5272 49.6882 36.6191 43.0687 35.343C41.7575 35.0902 40.9361 33.9859 41.2339 32.876C41.5319 31.7655 42.8332 31.0681 44.1476 31.3223C47.1309 31.8955 62.0082 35.0901 61.8434 41.7462C61.776 44.4886 59.9617 47.1419 56.7371 49.2164C53.6149 51.2245 49.7182 52.3397 46.1405 52.3397Z" stroke="black"/>
<path fill-rule="evenodd" clip-rule="evenodd" d="M38.9067 66.5043C49.6185 66.5043 58.3837 59.0854 58.3837 50.0175V34.4707C58.3837 25.4026 49.6185 17.9839 38.9067 17.9839C28.194 17.9839 19.4297 25.4026 19.4297 34.4707V50.0175C19.4297 59.0854 28.194 66.5043 38.9067 66.5043Z" fill="#A5BFC4"/>
<mask id="mask1_2237_6887" style="mask-type:alpha" maskUnits="userSpaceOnUse" x="37" y="44" width="17" height="23">
<path fill-rule="evenodd" clip-rule="evenodd" d="M53.4134 60.9914C49.8402 64.3698 44.6547 66.5042 38.9088 66.5042C38.3621 66.5042 37.8206 66.4849 37.2852 66.4469V44.6899H53.4134V60.9914Z" fill="white"/>
</mask>
<g mask="url(#mask1_2237_6887)">
<path fill-rule="evenodd" clip-rule="evenodd" d="M45.3497 73.0691C49.8024 73.0691 53.4134 70.0131 53.4134 66.2433V51.5157C53.4134 47.7459 49.8024 44.6899 45.3497 44.6899C40.896 44.6899 37.2852 47.7459 37.2852 51.5157V66.2433C37.2852 70.0131 40.896 73.0691 45.3497 73.0691Z" fill="white" fill-opacity="0.24"/>
</g>
<mask id="mask2_2237_6887" style="mask-type:alpha" maskUnits="userSpaceOnUse" x="19" y="36" width="40" height="31">
<path fill-rule="evenodd" clip-rule="evenodd" d="M19.4805 36.2466V50.0175C19.4805 59.0854 28.2448 66.5043 38.9575 66.5043C49.6702 66.5043 58.4345 59.0854 58.4345 50.0175V36.2466H19.4805Z" fill="white"/>
</mask>
<g mask="url(#mask2_2237_6887)">
<path fill-rule="evenodd" clip-rule="evenodd" d="M19.9062 50.8462C19.9062 59.4941 28.1884 66.5047 38.4047 66.5047H41.1013C51.3176 66.5047 59.5998 59.4941 59.5998 50.8462H19.9062Z" fill="#0BAF17"/>
<path fill-rule="evenodd" clip-rule="evenodd" d="M58.3837 51.5562H18.7266V36.2466L41.3803 40.428L44.5399 46.8985C44.7615 47.3507 45.5181 47.3507 45.7389 46.8978L48.9009 40.3985L58.3837 36.2466V51.5562Z" fill="white"/>
<path fill-rule="evenodd" clip-rule="evenodd" d="M38.1889 50.94H34.1445V38.6299L38.1889 39.3397V50.94Z" fill="#0BAF17"/>
<path fill-rule="evenodd" clip-rule="evenodd" d="M55.1976 50.7997H51.1523V39.3643L55.1976 37.6226V50.7997Z" fill="#0BAF17"/>
</g>
<path d="M19.6094 51.376H58.2421" stroke="black"/>
<path opacity="0.42" fill-rule="evenodd" clip-rule="evenodd" d="M41.8574 28.519C43.0175 30.2473 42.3031 32.4435 40.2621 33.4262C38.9519 34.0571 35.5228 34.0006 33.2368 33.879C32.1651 33.8221 31.5157 32.8552 32.006 32.0463C33.0525 30.3216 34.7491 27.7989 36.0595 27.1688C38.101 26.1861 40.6964 26.7908 41.8574 28.519Z" fill="white"/>
<path opacity="0.42" fill-rule="evenodd" clip-rule="evenodd" d="M47.8285 28.7539C48.8732 26.9742 51.4256 26.2485 53.5282 27.1336C54.8781 27.7012 56.7372 30.1399 57.8948 31.8133C58.438 32.5972 57.8534 33.5937 56.7868 33.7008C54.5113 33.9291 51.0926 34.1469 49.7427 33.5786C47.6401 32.6934 46.7828 30.5337 47.8285 28.7539Z" fill="white"/>
<path fill-rule="evenodd" clip-rule="evenodd" d="M54.4541 30.1736C54.4541 31.0573 53.6065 31.774 52.5625 31.7734C51.5186 31.7734 50.6719 31.0565 50.6719 30.1722C50.6726 29.2878 51.5193 28.5718 52.5642 28.5718C53.6082 28.5724 54.4549 29.2891 54.4541 30.1736Z" fill="black"/>
<path fill-rule="evenodd" clip-rule="evenodd" d="M41.876 30.1736C41.8752 31.0573 41.0285 31.774 39.9836 31.7734C38.9397 31.7734 38.093 31.0565 38.0938 30.1722C38.0938 29.2878 38.9414 28.5718 39.9853 28.5718C41.0301 28.5724 41.876 29.2891 41.876 30.1736Z" fill="black"/>
<path d="M38.9067 66.5046C49.6185 66.5046 58.3837 59.0859 58.3837 50.0178V34.4712C58.3837 25.4031 49.6185 17.9844 38.9067 17.9844C28.194 17.9844 19.4297 25.4031 19.4297 34.4712V50.0178C19.4297 59.0859 28.194 66.5046 38.9067 66.5046Z" stroke="black"/>
<path fill-rule="evenodd" clip-rule="evenodd" d="M22.0155 52.3401C20.9122 52.3401 19.839 52.2343 18.8283 52.0158C17.5262 51.7341 16.7396 50.6106 17.0724 49.5076C17.4044 48.4047 18.7293 47.7395 20.0355 48.0205C22.8477 48.6301 26.8084 47.7711 29.6653 45.9336C31.6525 44.6548 32.8135 43.0976 32.8492 41.66C32.9011 39.5277 25.5632 36.6196 18.9437 35.3435C17.6325 35.0906 16.8111 33.9863 17.1089 32.8765C17.4069 31.766 18.7082 31.0686 20.0226 31.3228C23.006 31.8958 37.8832 35.0906 37.7184 41.7467C37.6511 44.4891 35.8367 47.1423 32.6121 49.2169C29.4899 51.2248 25.5932 52.3401 22.0155 52.3401Z" fill="#FCE47E" stroke="black"/>
<path fill-rule="evenodd" clip-rule="evenodd" d="M45.2012 15.6557C44.2553 13.287 41.6105 11.5801 38.4923 11.5801C35.3749 11.5801 32.7301 13.287 31.7852 15.6557H45.2012Z" fill="#1DCC70" stroke="black"/>
<path fill-rule="evenodd" clip-rule="evenodd" d="M36.4843 15.1431C35.8227 15.1431 35.2812 14.6848 35.2812 14.1246V11.1973C35.2812 10.6366 35.8227 10.1782 36.4843 10.1782C37.1459 10.1782 37.6873 10.6366 37.6873 11.1973V14.1246C37.6873 14.6848 37.1459 15.1431 36.4843 15.1431Z" fill="#FD4242"/>
<path fill-rule="evenodd" clip-rule="evenodd" d="M47.0898 16.728C47.0898 18.0913 45.7722 19.2066 44.1616 19.2066H32.7328C31.1231 19.2066 29.8047 18.0913 29.8047 16.728C29.8047 16.1301 30.3779 15.645 31.0841 15.645H45.8104C46.5166 15.645 47.0898 16.1301 47.0898 16.728Z" fill="#0BAF17"/>
<path d="M47.0898 16.728C47.0898 18.0913 45.7722 19.2066 44.1616 19.2066H32.7328C31.1231 19.2066 29.8047 18.0913 29.8047 16.728C29.8047 16.1301 30.3779 15.645 31.0841 15.645H45.8104C46.5166 15.645 47.0898 16.1301 47.0898 16.728Z" stroke="black"/>
<path fill-rule="evenodd" clip-rule="evenodd" d="M37.2541 63.1182C37.2541 66.0593 34.4372 68.4439 30.9626 68.4439C27.4888 68.4439 24.6719 66.0593 24.6719 63.1182" fill="#0BAF17"/>
<path fill-rule="evenodd" clip-rule="evenodd" d="M37.2541 60.2188V63.1187C37.2541 66.0598 34.4372 68.4436 30.9626 68.4436C27.4888 68.4436 24.6719 66.0598 24.6719 63.1187V60.5458" fill="#0BAF17"/>
<path fill-rule="evenodd" clip-rule="evenodd" d="M37.2541 63.1182C37.2541 66.0593 34.4372 68.4439 30.9626 68.4439C27.4888 68.4439 24.6719 66.0593 24.6719 63.1182" fill="#A5BFC4"/>
<path d="M35.1795 43.5891L33.978 42.5714L30.5712 39.6875L22.9414 44.8233L28.3319 49.3862C30.2225 50.9872 33.2888 50.9872 35.1795 49.3862C37.0718 47.7857 37.0718 45.1903 35.1795 43.5891Z" fill="white"/>
<path fill-rule="evenodd" clip-rule="evenodd" d="M33.9783 42.5723L35.1798 43.59C37.0722 45.1911 37.0722 47.7866 35.1798 49.3871C33.2892 50.9881 30.2229 50.9881 28.3322 49.3871L27.0195 48.2766" fill="#A5BFC4"/>
<path fill-rule="evenodd" clip-rule="evenodd" d="M67.6033 68.4438C66.2606 68.4438 65.168 67.5188 65.168 66.3822V27.9635C65.168 26.8261 66.2606 25.9019 67.6033 25.9019C68.946 25.9019 70.0388 26.8261 70.0388 27.9635V30.9678C70.3612 30.8372 70.7175 30.7685 71.0853 30.7685C71.7355 30.7685 72.3476 30.9829 72.8071 31.3726C73.2674 31.7622 73.5206 32.2796 73.5206 32.8301C73.5206 33.3811 73.2674 33.8986 72.8071 34.2883L70.0388 36.6314V66.3822C70.0388 67.5188 68.946 68.4438 67.6033 68.4438Z" fill="#FCE47E"/>
<path d="M67.6033 68.4438C66.2606 68.4438 65.168 67.5188 65.168 66.3822V27.9635C65.168 26.8261 66.2606 25.9019 67.6033 25.9019C68.946 25.9019 70.0388 26.8261 70.0388 27.9635V30.9678C70.3612 30.8372 70.7175 30.7685 71.0853 30.7685C71.7355 30.7685 72.3476 30.9829 72.8071 31.3726C73.2674 31.7622 73.5206 32.2796 73.5206 32.8301C73.5206 33.3811 73.2674 33.8986 72.8071 34.2883L70.0388 36.6314V66.3822C70.0388 67.5188 68.946 68.4438 67.6033 68.4438Z" stroke="black"/>
<path fill-rule="evenodd" clip-rule="evenodd" d="M43.1301 32.876C44.4031 32.3792 45.8806 32.3792 47.1535 32.876C47.9352 33.1812 48.1009 34.0628 47.4928 34.5782L46.0259 35.8192C45.5379 36.233 44.7456 36.233 44.2577 35.8192L42.7909 34.5782C42.1819 34.0628 42.3484 33.1812 43.1301 32.876Z" fill="black"/>
<path fill-rule="evenodd" clip-rule="evenodd" d="M7.47991 50.6525C4.19857 50.6525 1.53906 48.4013 1.53906 45.6237V42.0311C1.53906 39.2542 4.19857 37.0024 7.47991 37.0024C10.7604 37.0024 13.4199 39.2542 13.4199 42.0311V45.6237C13.4199 48.4013 10.7604 50.6525 7.47991 50.6525Z" fill="#FCE47E"/>
<path d="M7.47991 50.6525C4.19857 50.6525 1.53906 48.4013 1.53906 45.6237V42.0311C1.53906 39.2542 4.19857 37.0024 7.47991 37.0024C10.7604 37.0024 13.4199 39.2542 13.4199 42.0311V45.6237C13.4199 48.4013 10.7604 50.6525 7.47991 50.6525Z" stroke="black"/>
<path fill-rule="evenodd" clip-rule="evenodd" d="M15.4622 29.2436C15.4622 32.0453 12.7791 34.3163 9.46936 34.3163C6.1596 34.3163 3.47656 32.0453 3.47656 29.2436C3.47656 26.442 6.1596 24.1709 9.46936 24.1709C12.7791 24.1709 15.4622 26.442 15.4622 29.2436Z" fill="#FD4242"/>
<path d="M15.4622 29.2436C15.4622 32.0453 12.7791 34.3163 9.46936 34.3163C6.1596 34.3163 3.47656 32.0453 3.47656 29.2436C3.47656 26.442 6.1596 24.1709 9.46936 24.1709C12.7791 24.1709 15.4622 26.442 15.4622 29.2436Z" stroke="black"/>
<path d="M22.9414 44.8233L28.3319 49.3862C30.2227 50.9872 33.2888 50.9872 35.1795 49.3862C37.0718 47.7857 37.0718 45.1903 35.1795 43.5891L33.9781 42.5714L30.5712 39.6875" stroke="black" stroke-linecap="round"/>
<path fill-rule="evenodd" clip-rule="evenodd" d="M42.6503 45.4364C42.1853 46.0045 42.0641 46.8367 42.594 47.3625C42.8418 47.6083 43.2483 47.7642 43.6136 47.6694C44.0265 47.5626 44.2515 47.1905 44.3813 46.8421C44.6562 46.1051 44.7079 45.3243 44.7578 44.5527C44.7601 45.0628 44.7637 45.5796 44.9161 46.0732C45.0686 46.5667 45.3889 47.0429 45.8999 47.3138C46.4107 47.5845 47.129 47.6037 47.5904 47.2749C48.0088 46.9765 48.1372 46.4645 48.0624 46.006C47.9633 45.3991 47.3635 44.8353 46.7578 44.4996C45.2565 43.6678 43.6062 44.2685 42.6503 45.4364Z" stroke="black" stroke-linecap="round" stroke-linejoin="round"/>
<path d="M40.5195 43.793C43.3285 43.9344 46.187 43.8782 48.957 43.6274" stroke="black" stroke-linecap="round" stroke-linejoin="round"/>
<path d="M1.53906 42.2974H13.656" stroke="black"/>
<path d="M37.6621 59.5186V62.946C37.6621 65.9826 34.7543 68.444 31.1673 68.444C27.58 68.444 24.6719 65.9826 24.6719 62.946V59.5186" stroke="black" stroke-linecap="round" stroke-linejoin="round"/>
<path d="M24.7266 62.5835H37.6068" stroke="black"/>
<path d="M45.1406 34.7129V37.6779" stroke="black" stroke-linecap="round"/>
<path d="M42.1758 37.1582C43.8142 38.5451 46.4704 38.5451 48.1089 37.1582" stroke="black" stroke-linecap="round"/>
<path d="M25.2242 25.0672C22.9982 23.2196 22.9982 20.1952 25.2242 18.3477L25.6243 18.0157C26.3467 17.416 27.5175 17.416 28.2399 18.0157L32.4094 21.4762" fill="#A5BFC4"/>
<path d="M25.2242 25.0672C22.9982 23.2196 22.9982 20.1952 25.2242 18.3477L25.6243 18.0157C26.3467 17.416 27.5175 17.416 28.2399 18.0157L32.4094 21.4762" stroke="black" stroke-miterlimit="10" stroke-linecap="round"/>
</svg>
