<svg width="27" height="28" viewBox="0 0 27 28" fill="none" xmlns="http://www.w3.org/2000/svg">
<path fill-rule="evenodd" clip-rule="evenodd" d="M13.4909 0.401367C17.0969 0.401367 20.4858 1.80337 23.0313 4.35007C28.2929 9.61166 28.2929 18.1718 23.0313 23.4334C20.452 26.014 16.979 27.3796 13.4608 27.3796C11.5429 27.3796 9.61249 26.9741 7.80633 26.1382C7.27414 25.9248 6.77585 25.724 6.41813 25.724C6.00644 25.7265 5.45292 25.9173 4.91823 26.1018C3.82123 26.4784 2.45562 26.9478 1.44523 25.9412C0.438596 24.9333 0.903002 23.5714 1.27704 22.4757C1.46154 21.936 1.65107 21.3787 1.65107 20.957C1.65107 20.6105 1.48414 20.1687 1.22809 19.5324C-1.12281 14.4553 -0.0358506 8.33642 3.95176 4.35132C6.49721 1.80462 9.88485 0.401367 13.4909 0.401367ZM13.4922 2.28409C10.3882 2.28409 7.47246 3.49155 5.28222 5.68304C1.85064 9.11211 0.916808 14.3775 2.95643 18.7868C3.25013 19.5135 3.5338 20.2214 3.5338 20.957C3.5338 21.6912 3.28151 22.4305 3.05935 23.0832C2.8761 23.6204 2.59871 24.4312 2.77694 24.6094C2.95141 24.7902 3.76725 24.5053 4.30571 24.3208C4.95212 24.0999 5.68512 23.8463 6.41185 23.8413C7.13984 23.8413 7.82641 24.1174 8.55314 24.4099C13.0052 26.4683 18.2705 25.532 21.7008 22.1029C26.2269 17.5743 26.2269 10.2079 21.7008 5.68178C19.5093 3.49029 16.5949 2.28409 13.4922 2.28409ZM18.4461 13.1571C19.1389 13.1571 19.7013 13.7181 19.7013 14.4122C19.7013 15.1063 19.1389 15.6674 18.4461 15.6674C17.7533 15.6674 17.1859 15.1063 17.1859 14.4122C17.1859 13.7181 17.742 13.1571 18.4348 13.1571H18.4461ZM13.4145 13.1571C14.1073 13.1571 14.6696 13.7181 14.6696 14.4122C14.6696 15.1063 14.1073 15.6674 13.4145 15.6674C12.7216 15.6674 12.1543 15.1063 12.1543 14.4122C12.1543 13.7181 12.7091 13.1571 13.4032 13.1571H13.4145ZM8.38231 13.1571C9.07516 13.1571 9.63746 13.7181 9.63746 14.4122C9.63746 15.1063 9.07516 15.6674 8.38231 15.6674C7.68947 15.6674 7.12214 15.1063 7.12214 14.4122C7.12214 13.7181 7.67818 13.1571 8.37102 13.1571H8.38231Z" fill="current"/>
</svg>
