<svg width="220" height="110" viewBox="0 0 220 110" fill="none" xmlns="http://www.w3.org/2000/svg">
<path opacity="0.5" d="M87.6607 89.1825C106.593 89.1825 119.595 97 128.717 97C137.84 97 157 92.8196 157 59.3655C157 25.9113 131.225 21 121.19 21C74.2023 21 54.1311 89.1825 87.6607 89.1825Z" fill="#F5F3F7"/>
<g clip-path="url(#clip0_2200_5202)">
<path d="M144.019 50.5C144.019 50.0362 143.805 49.5987 143.438 49.3149C143.437 49.3135 139.771 46.4726 135.02 42.742V37C135.02 33.6909 132.329 30.9999 129.019 30.9999H120.283C118.146 29.2543 116.291 27.7111 115.052 26.6127C113.861 25.5586 112.44 25.0001 111.02 25C109.599 24.9999 108.178 25.5591 106.988 26.6128C105.75 27.7113 103.895 29.2545 101.756 31.0001H93.0196C89.7104 31.0001 87.0195 33.6909 87.0195 37V42.7418C82.2673 46.4722 78.6026 49.3135 78.601 49.3149C78.2337 49.5987 78.0202 50.0362 78.0198 50.5H78.0195V85C78.0195 88.309 80.7104 91 84.0196 91H138.02C141.329 91 144.02 88.3091 144.02 85V50.5H144.019ZM135.02 46.5543C137.118 48.197 138.898 49.5852 140.072 50.4986C138.9 51.4083 137.116 52.7957 135.02 54.4354V46.5543ZM108.978 28.8583C110.264 27.7187 111.774 27.7172 113.063 28.8597C113.738 29.4568 114.59 30.1825 115.568 30.9999H106.473C107.451 30.1825 108.302 29.4563 108.978 28.8583ZM90.0195 37C90.0195 35.3462 91.3657 34 93.0194 34H129.019C130.673 34 132.02 35.3462 132.02 37V56.7863C125.305 62.0599 116.882 68.7587 113.063 72.1401C112.701 72.4608 111.947 73 110.973 73C110.261 73 109.574 72.7114 108.929 72.1401C105.086 68.7376 96.7059 62.0606 90.0195 56.7998V37ZM87.0195 46.5543V54.4449C84.9213 52.8016 83.1376 51.4112 81.9658 50.5001C83.1384 49.5865 84.92 48.1981 87.0195 46.5543ZM141.02 85.0001C141.02 86.6538 139.673 88 138.02 88H84.0196C82.3658 88 81.0196 86.6538 81.0196 85.0001V53.5626C87.276 58.4325 101.751 69.7902 106.94 74.3873C108.132 75.4419 109.527 76.0001 110.973 76.0001C112.429 76.0001 113.878 75.4273 115.052 74.3873C120.445 69.6116 135.207 58.0792 141.02 53.5617V85.0001Z" fill="#9D3FE7"/>
<path d="M106.52 49.0001C107.348 49.0001 108.02 48.3285 108.02 47.5001C108.02 46.6716 107.348 46 106.52 46C105.691 46 105.02 46.6716 105.02 47.5001C105.02 48.3285 105.691 49.0001 106.52 49.0001Z" fill="#9D3FE7"/>
<path d="M115.52 49.0001C116.348 49.0001 117.02 48.3285 117.02 47.5001C117.02 46.6716 116.348 46 115.52 46C114.691 46 114.02 46.6716 114.02 47.5001C114.02 48.3285 114.691 49.0001 115.52 49.0001Z" fill="#9D3FE7"/>
<path d="M118.362 54.1715C118.728 53.4391 118.434 52.5572 117.706 52.1808C116.979 51.7984 116.078 52.0899 115.689 52.8106C115.64 52.8999 114.468 55.0006 111.02 55.0006C107.598 55.0006 106.418 52.9307 106.353 52.8121C105.978 52.084 105.089 51.7955 104.349 52.1587C103.608 52.5293 103.308 53.4302 103.678 54.1715C103.756 54.3283 105.654 58.0006 111.02 58.0006C116.386 58.0006 118.284 54.3283 118.362 54.1715Z" fill="#9D3FE7"/>
</g>
<g opacity="0.5">
<mask id="path-6-inside-1_2200_5202" fill="white">
<ellipse cx="54.2449" cy="24.2553" rx="2.2449" ry="1.25338"/>
</mask>
<path d="M54.4898 24.2553C54.4898 23.9191 54.6174 23.6698 54.7192 23.5355C54.8115 23.4136 54.8825 23.3813 54.8573 23.3954C54.8013 23.4266 54.5888 23.5087 54.2449 23.5087V27.5087C55.1409 27.5087 56.0508 27.3102 56.8073 26.8879C57.4981 26.5022 58.4898 25.6525 58.4898 24.2553H54.4898ZM54.2449 23.5087C53.901 23.5087 53.6885 23.4266 53.6325 23.3954C53.6073 23.3813 53.6783 23.4136 53.7706 23.5355C53.8724 23.6698 54 23.9191 54 24.2553H50C50 25.6525 50.9917 26.5022 51.6825 26.8879C52.439 27.3102 53.3489 27.5087 54.2449 27.5087V23.5087ZM54 24.2553C54 24.5916 53.8724 24.8409 53.7706 24.9752C53.6783 25.097 53.6073 25.1294 53.6325 25.1153C53.6885 25.0841 53.901 25.002 54.2449 25.002V21.002C53.3489 21.002 52.439 21.2004 51.6825 21.6228C50.9917 22.0085 50 22.8582 50 24.2553H54ZM54.2449 25.002C54.5888 25.002 54.8013 25.0841 54.8573 25.1153C54.8825 25.1294 54.8115 25.097 54.7192 24.9752C54.6174 24.8409 54.4898 24.5916 54.4898 24.2553H58.4898C58.4898 22.8582 57.4981 22.0085 56.8073 21.6228C56.0508 21.2004 55.1409 21.002 54.2449 21.002V25.002Z" fill="#9D3FE7" mask="url(#path-6-inside-1_2200_5202)"/>
</g>
<circle opacity="0.5" cx="149.52" cy="30.5" r="3.5" stroke="#9D3FE7" stroke-width="2"/>
<circle opacity="0.5" cx="69.5195" cy="39.5" r="3.5" stroke="#9D3FE7" stroke-width="2"/>
<circle opacity="0.5" cx="160.02" cy="38" r="2" stroke="#9D3FE7" stroke-width="2"/>
<g opacity="0.5">
<line x1="164.02" y1="20" x2="164.02" y2="28" stroke="#9D3FE7" stroke-width="2"/>
<line x1="160.02" y1="24" x2="168.02" y2="24" stroke="#9D3FE7" stroke-width="2"/>
</g>
<g opacity="0.5">
<line x1="56.0195" y1="27" x2="56.0195" y2="35" stroke="#9D3FE7" stroke-width="2"/>
<line x1="52.0195" y1="31" x2="60.0195" y2="31" stroke="#9D3FE7" stroke-width="2"/>
</g>
<g opacity="0.5">
<line x1="74.0195" y1="21" x2="74.0195" y2="27" stroke="#9D3FE7" stroke-width="2"/>
<line x1="71.0195" y1="24" x2="77.0195" y2="24" stroke="#9D3FE7" stroke-width="2"/>
</g>
<defs>
<clipPath id="clip0_2200_5202">
<rect width="66" height="66" fill="white" transform="translate(78.0195 25)"/>
</clipPath>
</defs>
</svg>
