<svg width="30" height="35" viewBox="0 0 30 35" fill="none" xmlns="http://www.w3.org/2000/svg">
<path d="M27.4379 34.9186H24.9437V31.1774C24.9417 29.5242 24.2841 27.9394 23.1152 26.7704C21.9463 25.6015 20.3614 24.9439 18.7083 24.9419H11.2257C9.57258 24.9439 7.98772 25.6015 6.81878 26.7704C5.64984 27.9394 4.99225 29.5242 4.99027 31.1774V34.9186H2.49609V31.1774C2.49873 28.8629 3.41931 26.6441 5.05586 25.0075C6.69241 23.371 8.91129 22.4504 11.2257 22.4478H18.7083C21.0227 22.4504 23.2416 23.371 24.8781 25.0075C26.5147 26.6441 27.4352 28.8629 27.4379 31.1774V34.9186Z" fill="#AB72FF"/>
<path d="M1.24709 4.98828C0.916341 4.98828 0.599139 5.11967 0.365264 5.35355C0.13139 5.58742 0 5.90462 0 6.23537V17.4592H2.49418V6.23537C2.49418 5.90462 2.36279 5.58742 2.12891 5.35355C1.89504 5.11967 1.57784 4.98828 1.24709 4.98828Z" fill="#AB72FF"/>
<path d="M0 0V2.49418H6.23545V11.2238C6.23545 13.539 7.15517 15.7595 8.79229 17.3966C10.4294 19.0337 12.6498 19.9534 14.9651 19.9534C17.2803 19.9534 19.5007 19.0337 21.1378 17.3966C22.775 15.7595 23.6947 13.539 23.6947 11.2238V2.49418H29.9301V0H0ZM8.72962 2.49418H21.2005V6.23545H8.72962V2.49418ZM14.9651 17.4593C13.3113 17.4593 11.7253 16.8023 10.5559 15.6329C9.38657 14.4636 8.72962 12.8775 8.72962 11.2238V8.72963H21.2005V11.2238C21.2005 12.8775 20.5436 14.4636 19.3742 15.6329C18.2048 16.8023 16.6188 17.4593 14.9651 17.4593Z" fill="#AB72FF"/>
</svg>
