<svg width="59" height="59" viewBox="0 0 59 59" fill="none" xmlns="http://www.w3.org/2000/svg">
<path d="M52.1014 29.1283C52.1014 41.8157 41.8162 52.1009 29.1288 52.1009C16.4414 52.1009 6.15625 41.8157 6.15625 29.1283C6.15625 16.4409 16.4414 6.15576 29.1288 6.15576C41.8162 6.15576 52.1014 16.4409 52.1014 29.1283ZM10.4339 29.1283C10.4339 39.4532 18.8039 47.8232 29.1288 47.8232C39.4537 47.8232 47.8237 39.4532 47.8237 29.1283C47.8237 18.8034 39.4537 10.4335 29.1288 10.4335C18.8039 10.4335 10.4339 18.8034 10.4339 29.1283Z" fill="#EEEEEE"/>
<path d="M27.4261 8.36446C27.3295 7.18717 28.2069 6.14402 29.388 6.15731C32.6293 6.19379 35.8347 6.91604 38.7903 8.28597C42.3944 9.95654 45.5037 12.5331 47.8147 15.7642C50.1257 18.9953 51.5593 22.7704 51.9756 26.721C52.3919 30.6716 51.7766 34.6627 50.1899 38.3045C48.6031 41.9463 46.0991 45.1144 42.9224 47.4995C39.7456 49.8846 36.0047 51.4052 32.0648 51.9127C28.1249 52.4203 24.1207 51.8975 20.4431 50.3955C17.4274 49.1637 14.7158 47.3079 12.4821 44.959C11.6681 44.103 11.8347 42.7501 12.7627 42.0192C13.6907 41.2884 15.0274 41.4584 15.8595 42.2968C17.6226 44.0735 19.73 45.4834 22.0606 46.4354C25.0533 47.6577 28.3119 48.0832 31.5182 47.6701C34.7244 47.257 37.7688 46.0196 40.354 44.0786C42.9392 42.1377 44.977 39.5595 46.2682 36.5958C47.5595 33.6321 48.0602 30.3843 47.7214 27.1693C47.3827 23.9544 46.216 20.8822 44.3353 18.2528C42.4547 15.6233 39.9243 13.5265 36.9913 12.167C34.7072 11.1083 32.2398 10.5249 29.738 10.4435C28.5574 10.405 27.5227 9.54176 27.4261 8.36446Z" fill="url(#paint0_linear_815_5644)"/>
<defs>
<linearGradient id="paint0_linear_815_5644" x1="50.8877" y1="21.7584" x2="7.37123" y2="36.4985" gradientUnits="userSpaceOnUse">
<stop stop-color="#0077FF"/>
<stop offset="1" stop-color="#FA00FF" stop-opacity="0"/>
</linearGradient>
</defs>
</svg>
