<svg width="24" height="27" viewBox="0 0 24 27" fill="none" xmlns="http://www.w3.org/2000/svg">
<path fill-rule="evenodd" clip-rule="evenodd" d="M12.7776 0.401367C13.6687 0.401367 14.5348 0.767248 15.1558 1.40318C15.7756 2.04285 16.1178 2.92022 16.0917 3.81003C16.0942 4.0104 16.1601 4.24187 16.2796 4.44472C16.4775 4.78074 16.7898 5.01719 17.1607 5.11426C17.5316 5.20635 17.9198 5.15657 18.2496 4.96119C19.8426 4.05146 21.8699 4.59655 22.7796 6.17706L23.5549 7.51986C23.5748 7.55595 23.5922 7.5908 23.6072 7.62689C24.431 9.18375 23.881 11.1438 22.3502 12.0386C22.1275 12.1668 21.947 12.346 21.8226 12.5625C21.6297 12.8973 21.5762 13.2956 21.6732 13.6614C21.7728 14.0348 22.0105 14.3447 22.3453 14.5363C23.1007 14.9706 23.6644 15.7024 23.8897 16.5474C24.1149 17.3912 23.9917 18.3071 23.5524 19.0625L22.7261 20.4389C21.8164 22.002 19.7891 22.5434 18.2123 21.6324C18.002 21.5117 17.7593 21.4457 17.5179 21.4395H17.5104C17.1507 21.4395 16.7811 21.5926 16.5123 21.8602C16.2398 22.1327 16.0904 22.4961 16.0929 22.8819C16.0842 24.71 14.5971 26.1885 12.7776 26.1885H11.2183C9.39009 26.1885 7.90293 24.7026 7.90293 22.8744C7.90044 22.6492 7.83572 22.4152 7.71501 22.2123C7.51962 21.8714 7.20352 21.6274 6.83888 21.5304C6.47674 21.4333 6.07974 21.4868 5.75369 21.676C4.97215 22.1115 4.05247 22.2173 3.21119 21.9809C2.37116 21.7432 1.64562 21.1657 1.22 20.4004L0.442193 19.06C-0.467531 17.482 0.073823 15.4597 1.64935 14.5488C2.09612 14.2911 2.37365 13.8108 2.37365 13.2956C2.37365 12.7803 2.09612 12.2987 1.64935 12.0411C0.0725786 11.1252 -0.467531 9.09788 0.440948 7.51986L1.28471 6.13474C2.18199 4.57415 4.21052 4.02409 5.79227 4.93256C6.00756 5.06075 6.24153 5.12546 6.47923 5.12795C7.25455 5.12795 7.90293 4.48828 7.91537 3.70176C7.91039 2.83435 8.25263 2.00178 8.87612 1.37332C9.5021 0.746092 10.3334 0.401367 11.2183 0.401367H12.7776ZM12.7776 2.26811H11.2183C10.8325 2.26811 10.4716 2.41869 10.199 2.68999C9.92772 2.96253 9.77962 3.32468 9.78211 3.71047C9.75597 5.52992 8.26881 6.99469 6.46803 6.99469C5.89058 6.98847 5.33429 6.8329 4.85143 6.54418C4.17318 6.15839 3.2871 6.39609 2.89011 7.08678L2.04759 8.4719C1.6618 9.14144 1.89825 10.0263 2.58521 10.4258C3.60445 11.0156 4.24038 12.1158 4.24038 13.2956C4.24038 14.4753 3.60445 15.5742 2.58272 16.1654C1.89949 16.5611 1.66304 17.441 2.05879 18.1254L2.84406 19.4794C3.0382 19.8291 3.35555 20.0818 3.72268 20.1851C4.08856 20.2871 4.49177 20.2436 4.82778 20.0569C5.32185 19.7669 5.8968 19.6163 6.47425 19.6163C6.75924 19.6163 7.04423 19.6524 7.32299 19.7271C8.16427 19.9536 8.89479 20.5161 9.32787 21.2715C9.60913 21.7457 9.76469 22.2995 9.76966 22.8645C9.76966 23.6734 10.4193 24.3218 11.2183 24.3218H12.7776C13.5728 24.3218 14.2225 23.6771 14.2262 22.8819C14.2212 22.0033 14.5647 21.1682 15.1932 20.5397C15.8129 19.92 16.6791 19.5479 17.5453 19.5728C18.1127 19.5865 18.6591 19.7395 19.1407 20.0133C19.8339 20.4103 20.7187 20.1739 21.1194 19.4894L21.9458 18.1117C22.13 17.7944 22.1835 17.3962 22.0852 17.029C21.9881 16.6619 21.7442 16.3433 21.4156 16.1554C20.6465 15.7124 20.0977 14.998 19.87 14.1418C19.6447 13.3018 19.7679 12.3846 20.2072 11.6292C20.4935 11.1314 20.9129 10.712 21.4156 10.4233C22.0901 10.0288 22.3266 9.14642 21.9346 8.45946C21.9184 8.43208 21.9035 8.40345 21.891 8.37359L21.1617 7.10918C20.7648 6.41849 19.8812 6.18079 19.188 6.57529C18.4388 7.01833 17.5477 7.14527 16.6915 6.92002C15.8366 6.6985 15.1197 6.15714 14.673 5.39303C14.3867 4.91514 14.2312 4.35885 14.2262 3.79261C14.2374 3.36699 14.0881 2.98493 13.8168 2.70492C13.5467 2.42616 13.1671 2.26811 12.7776 2.26811ZM12.0034 9.08058C14.3269 9.08058 16.2173 10.9722 16.2173 13.2957C16.2173 15.6191 14.3269 17.5083 12.0034 17.5083C9.67994 17.5083 7.78955 15.6191 7.78955 13.2957C7.78955 10.9722 9.67994 9.08058 12.0034 9.08058ZM12.0034 10.9473C10.7091 10.9473 9.65629 12.0014 9.65629 13.2957C9.65629 14.59 10.7091 15.6415 12.0034 15.6415C13.2977 15.6415 14.3505 14.59 14.3505 13.2957C14.3505 12.0014 13.2977 10.9473 12.0034 10.9473Z" fill="#8A8A8A"/>
</svg>
