<svg width="80" height="81" viewBox="0 0 80 81" fill="none" xmlns="http://www.w3.org/2000/svg">
<circle cx="40" cy="40.7197" r="40" fill="#F9F9FF"/>
<path d="M40.0968 52.8151C35.4092 52.8151 30.7215 52.8151 26.0339 52.8151C25.8049 52.8151 25.573 52.8151 25.343 52.7915C24.1694 52.6819 23.6976 51.8913 24.1981 50.8224C24.6323 49.8995 25.1061 49.0004 25.5661 48.0874C27.7375 43.7886 29.9089 39.4905 32.0803 35.1931C32.1474 35.0618 32.2175 34.9305 32.2955 34.8052C32.8423 33.9287 33.7306 33.8053 34.4304 34.5614C34.9239 35.0904 35.3414 35.6846 35.7816 36.2581C38.0188 39.1816 40.256 42.1064 42.4933 45.0326C43.4704 46.3058 44.7012 46.3749 45.8491 45.23C46.4186 44.6615 46.9753 44.0781 47.5517 43.5146C48.591 42.4979 49.7705 42.5591 50.6193 43.7445C52.3229 46.1232 53.984 48.5335 55.6531 50.9359C55.7835 51.1244 55.8834 51.3322 55.9492 51.5518C56.111 52.1035 55.8821 52.5477 55.3224 52.6947C54.9715 52.7787 54.6113 52.8175 54.2505 52.8102C49.5353 52.8181 44.8173 52.8197 40.0968 52.8151Z" fill="#D4D2E3"/>
<path d="M50.6094 29.2602C50.6082 30.1777 50.3346 31.0742 49.8233 31.8361C49.3119 32.5979 48.5859 33.1908 47.7372 33.5395C46.8885 33.8882 45.9554 33.9771 45.0562 33.7948C44.1569 33.6126 43.332 33.1674 42.6861 32.5158C42.0401 31.8641 41.6022 31.0354 41.4278 30.1346C41.2535 29.2337 41.3505 28.3014 41.7066 27.4558C42.0628 26.6102 42.662 25.8894 43.4283 25.3848C44.1946 24.8801 45.0934 24.6144 46.011 24.6212C47.2327 24.6367 48.3995 25.1317 49.2597 25.9995C50.1199 26.8673 50.6046 28.0383 50.6094 29.2602Z" fill="#D4D2E3"/>
</svg>
