<svg width="124" height="108" viewBox="0 0 124 108" fill="none" xmlns="http://www.w3.org/2000/svg">
<path d="M62.6084 107.99C44.5903 107.99 26.5722 107.99 8.55411 107.99C7.67395 107.99 6.7824 107.99 5.89844 107.9C1.38759 107.48 -0.425857 104.452 1.49761 100.357C3.16689 96.8227 4.98792 93.3786 6.75584 89.8817C15.1022 73.4164 23.4486 56.9536 31.795 40.4933C32.053 39.9905 32.3224 39.4877 32.6221 39.0076C34.7239 35.6505 38.1383 35.1779 40.8281 38.0738C42.725 40.1001 44.3298 42.376 46.0219 44.5725C54.6212 55.7703 63.2205 66.9732 71.8198 78.1811C75.5757 83.0579 80.3066 83.3225 84.7188 78.9372C86.9079 76.7596 89.0476 74.5253 91.2632 72.3667C95.258 68.4727 99.7917 68.7071 103.054 73.2475C109.602 82.3585 115.987 91.5905 122.403 100.792C122.904 101.514 123.288 102.31 123.541 103.151C124.163 105.265 123.283 106.966 121.132 107.529C119.783 107.851 118.398 107.999 117.012 107.971C98.8875 108.002 80.753 108.008 62.6084 107.99Z" fill="#D4D2E3"/>
<path d="M103.016 17.7688C103.012 21.2832 101.96 24.7171 99.9946 27.6352C98.0291 30.5532 95.2384 32.824 91.9763 34.1597C88.7141 35.4954 85.1274 35.8358 81.6709 35.1377C78.2144 34.4396 75.0437 32.7345 72.5609 30.2386C70.078 27.7427 68.3947 24.5683 67.7245 21.118C67.0543 17.6676 67.4273 14.0966 68.7962 10.8578C70.1651 7.6189 72.4683 4.858 75.4137 2.92508C78.3592 0.99217 81.8143 -0.0257081 85.341 0.000493408C90.0371 0.0599617 94.5218 1.95594 97.8282 5.2797C101.135 8.60346 102.998 13.0888 103.016 17.7688Z" fill="#D4D2E3"/>
</svg>
