<svg width="73" height="65" viewBox="0 0 73 65" fill="none" xmlns="http://www.w3.org/2000/svg">
<path d="M36.7169 64.0216C26.2348 64.0216 15.7528 64.0216 5.27067 64.0216C4.75863 64.0216 4.23997 64.0216 3.72573 63.9686C1.10153 63.7236 0.0465523 61.9558 1.16553 59.5655C2.13664 57.5019 3.19603 55.4913 4.22452 53.4498C9.08006 43.8373 13.9356 34.2262 18.7911 24.6167C18.9412 24.3231 19.0979 24.0296 19.2723 23.7493C20.495 21.7894 22.4814 21.5135 24.0462 23.2042C25.1497 24.3871 26.0833 25.7158 27.0676 26.9981C32.0703 33.5354 37.073 40.0757 42.0757 46.6189C44.2607 49.466 47.0129 49.6205 49.5797 47.0603C50.8532 45.789 52.0979 44.4847 53.3869 43.2244C55.7109 40.9512 58.3483 41.088 60.2464 43.7387C64.0558 49.0577 67.7703 54.4473 71.5024 59.8193C71.7941 60.2408 72.0175 60.7056 72.1646 61.1966C72.5265 62.4303 72.0145 63.4235 70.7631 63.7523C69.9784 63.9402 69.1729 64.027 68.3662 64.0106C57.8223 64.0282 47.2726 64.0319 36.7169 64.0216Z" fill="#D4D2E3"/>
<path d="M60.2243 11.35C60.2216 13.4018 59.6098 15.4065 58.4664 17.1101C57.323 18.8136 55.6995 20.1393 53.8017 20.9191C51.904 21.6989 49.8174 21.8976 47.8066 21.49C45.7957 21.0825 43.9512 20.0871 42.5068 18.63C41.0623 17.1728 40.0831 15.3196 39.6932 13.3053C39.3033 11.291 39.5203 9.20622 40.3167 7.31536C41.113 5.4245 42.4529 3.81268 44.1664 2.68424C45.8799 1.55579 47.8899 0.961554 49.9416 0.976851C52.6736 1.01157 55.2826 2.11844 57.2061 4.05886C59.1296 5.99929 60.2135 8.61784 60.2243 11.35Z" fill="#D4D2E3"/>
</svg>
