<svg width="21" height="20" viewBox="0 0 21 20" fill="none" xmlns="http://www.w3.org/2000/svg">
<path d="M14.9831 7.61719H6.64974C5.49915 7.61719 4.56641 8.54993 4.56641 9.70052V15.9505C4.56641 17.1011 5.49915 18.0339 6.64974 18.0339H14.9831C16.1337 18.0339 17.0664 17.1011 17.0664 15.9505V9.70052C17.0664 8.54993 16.1337 7.61719 14.9831 7.61719Z" stroke="#1E285F" stroke-width="2" stroke-linecap="round" stroke-linejoin="round"/>
<path d="M10.8171 1.36719C9.71199 1.36719 8.65218 1.80617 7.87078 2.58758C7.08938 3.36898 6.65039 4.42879 6.65039 5.53385V7.61719H14.9837V5.53385C14.9837 4.42879 14.5447 3.36898 13.7633 2.58758C12.9819 1.80617 11.9221 1.36719 10.8171 1.36719V1.36719Z" stroke="#1E285F" stroke-width="2" stroke-linecap="round" stroke-linejoin="round"/>
</svg>
