<svg width="60" height="60" viewBox="0 0 60 60" fill="none" xmlns="http://www.w3.org/2000/svg">
<mask id="mask0_2237_6965" style="mask-type:alpha" maskUnits="userSpaceOnUse" x="0" y="0" width="60" height="60">
<rect width="60" height="60" fill="#1C1B1F"/>
</mask>
<g mask="url(#mask0_2237_6965)">
<path d="M30.0006 52.4999C27.4291 50.0713 24.4827 48.2142 21.1613 46.9285C17.8398 45.6428 14.3577 44.9999 10.7148 44.9999V21.4285C14.322 21.4285 17.7863 22.0799 21.1077 23.3828C24.4291 24.687 27.3934 26.5713 30.0006 29.0356C32.6077 26.5713 35.572 24.687 38.8934 23.3828C42.2148 22.0799 45.6791 21.4285 49.2863 21.4285V44.9999C45.6077 44.9999 42.117 45.6428 38.8141 46.9285C35.5098 48.2142 32.572 50.0713 30.0006 52.4999ZM30.0006 46.9285C32.2506 45.2499 34.6434 43.9106 37.1791 42.9106C39.7148 41.9106 42.322 41.2499 45.0006 40.9285V26.1428C42.3934 26.607 39.8313 27.5442 37.3141 28.9542C34.7956 30.3656 32.3577 32.2499 30.0006 34.607C27.6434 32.2499 25.2063 30.3656 22.6891 28.9542C20.1706 27.5442 17.6077 26.607 15.0006 26.1428V40.9285C17.6791 41.2499 20.2863 41.9106 22.822 42.9106C25.3577 43.9106 27.7506 45.2499 30.0006 46.9285ZM30.0006 23.5713C27.6434 23.5713 25.6256 22.732 23.947 21.0535C22.2684 19.3749 21.4291 17.357 21.4291 14.9999C21.4291 12.6428 22.2684 10.6249 23.947 8.94632C25.6256 7.26775 27.6434 6.42847 30.0006 6.42847C32.3577 6.42847 34.3756 7.26775 36.0541 8.94632C37.7327 10.6249 38.572 12.6428 38.572 14.9999C38.572 17.357 37.7327 19.3749 36.0541 21.0535C34.3756 22.732 32.3577 23.5713 30.0006 23.5713ZM30.0006 19.2856C31.1791 19.2856 32.1884 18.8656 33.0284 18.0256C33.867 17.187 34.2863 16.1785 34.2863 14.9999C34.2863 13.8213 33.867 12.812 33.0284 11.972C32.1884 11.1335 31.1791 10.7142 30.0006 10.7142C28.822 10.7142 27.8134 11.1335 26.9748 11.972C26.1348 12.812 25.7148 13.8213 25.7148 14.9999C25.7148 16.1785 26.1348 17.187 26.9748 18.0256C27.8134 18.8656 28.822 19.2856 30.0006 19.2856Z" fill="#2D9CDB"/>
</g>
</svg>
