<svg width="60" height="60" viewBox="0 0 60 60" fill="none" xmlns="http://www.w3.org/2000/svg">
<mask id="mask0_895_9186" style="mask-type:alpha" maskUnits="userSpaceOnUse" x="0" y="0" width="60" height="60">
<rect width="60" height="60" fill="#D9D9D9"/>
</mask>
<g mask="url(#mask0_895_9186)">
<path d="M30.0039 45.0002C34.1706 45.0002 37.7122 43.5419 40.6289 40.6252C43.5456 37.7086 45.0039 34.1669 45.0039 30.0002C45.0039 25.8336 43.5456 22.2919 40.6289 19.3752C37.7122 16.4586 34.1706 15.0002 30.0039 15.0002V30.0002L19.3789 40.6252C20.8372 42.0002 22.4727 43.0732 24.2852 43.844C26.0977 44.6148 28.0039 45.0002 30.0039 45.0002ZM30.0039 55.0002C26.5456 55.0002 23.2956 54.344 20.2539 53.0315C17.2122 51.719 14.5664 49.9377 12.3164 47.6877C10.0664 45.4377 8.28516 42.7919 6.97266 39.7502C5.66016 36.7086 5.00391 33.4586 5.00391 30.0002C5.00391 26.5419 5.66016 23.2919 6.97266 20.2502C8.28516 17.2086 10.0664 14.5627 12.3164 12.3127C14.5664 10.0627 17.2122 8.28149 20.2539 6.96899C23.2956 5.65649 26.5456 5.00024 30.0039 5.00024C33.4622 5.00024 36.7122 5.65649 39.7539 6.96899C42.7956 8.28149 45.4414 10.0627 47.6914 12.3127C49.9414 14.5627 51.7227 17.2086 53.0352 20.2502C54.3477 23.2919 55.0039 26.5419 55.0039 30.0002C55.0039 33.4586 54.3477 36.7086 53.0352 39.7502C51.7227 42.7919 49.9414 45.4377 47.6914 47.6877C45.4414 49.9377 42.7956 51.719 39.7539 53.0315C36.7122 54.344 33.4622 55.0002 30.0039 55.0002ZM30.0039 50.0002C35.5872 50.0002 40.3164 48.0627 44.1914 44.1877C48.0664 40.3127 50.0039 35.5836 50.0039 30.0002C50.0039 24.4169 48.0664 19.6877 44.1914 15.8127C40.3164 11.9377 35.5872 10.0002 30.0039 10.0002C24.4206 10.0002 19.6914 11.9377 15.8164 15.8127C11.9414 19.6877 10.0039 24.4169 10.0039 30.0002C10.0039 35.5836 11.9414 40.3127 15.8164 44.1877C19.6914 48.0627 24.4206 50.0002 30.0039 50.0002Z" fill="#2D9CDB"/>
</g>
</svg>
