<svg width="60" height="60" viewBox="0 0 60 60" fill="none" xmlns="http://www.w3.org/2000/svg">
<mask id="mask0_895_9183" style="mask-type:alpha" maskUnits="userSpaceOnUse" x="0" y="0" width="60" height="60">
<rect width="60" height="60" fill="#D9D9D9"/>
</mask>
<g mask="url(#mask0_895_9183)">
<path d="M11.8125 49.9998C9.3125 49.9998 7.17708 49.1039 5.40625 47.3123C3.63542 45.5206 2.70833 43.3539 2.625 40.8123C2.625 40.4373 2.64583 40.0623 2.6875 39.6873C2.72917 39.3123 2.79167 38.9373 2.875 38.5623L8.125 17.5623C8.70833 15.3123 9.89583 13.4893 11.6875 12.0935C13.4792 10.6977 15.5208 9.99976 17.8125 9.99976H42.1875C44.4792 9.99976 46.5208 10.6977 48.3125 12.0935C50.1042 13.4893 51.2917 15.3123 51.875 17.5623L57.125 38.5623C57.2083 38.9373 57.2812 39.3227 57.3438 39.7185C57.4062 40.1143 57.4375 40.4998 57.4375 40.8748C57.4375 43.4164 56.5312 45.5727 54.7188 47.3435C52.9062 49.1143 50.7292 49.9998 48.1875 49.9998C46.4375 49.9998 44.8125 49.5414 43.3125 48.6248C41.8125 47.7081 40.6875 46.4581 39.9375 44.8748L38.1875 41.2498C37.9792 40.8331 37.6667 40.5206 37.25 40.3123C36.8333 40.1039 36.3958 39.9998 35.9375 39.9998H24.0625C23.6042 39.9998 23.1667 40.1039 22.75 40.3123C22.3333 40.5206 22.0208 40.8331 21.8125 41.2498L20.0625 44.8748C19.3125 46.4581 18.1875 47.7081 16.6875 48.6248C15.1875 49.5414 13.5625 49.9998 11.8125 49.9998ZM12 44.9998C12.7917 44.9998 13.5104 44.7914 14.1562 44.3748C14.8021 43.9581 15.2917 43.3956 15.625 42.6873L17.375 39.1248C18 37.8331 18.9167 36.8227 20.125 36.0935C21.3333 35.3643 22.6458 34.9998 24.0625 34.9998H35.9375C37.3542 34.9998 38.6667 35.3748 39.875 36.1248C41.0833 36.8748 42.0208 37.8748 42.6875 39.1248L44.4375 42.6873C44.7708 43.3956 45.2604 43.9581 45.9062 44.3748C46.5521 44.7914 47.2708 44.9998 48.0625 44.9998C49.2292 44.9998 50.2292 44.6143 51.0625 43.8435C51.8958 43.0727 52.3333 42.1039 52.375 40.9373C52.375 40.9789 52.3333 40.5831 52.25 39.7498L47 18.8123C46.7083 17.6873 46.125 16.7706 45.25 16.0623C44.375 15.3539 43.3542 14.9998 42.1875 14.9998H17.8125C16.6458 14.9998 15.6146 15.3539 14.7188 16.0623C13.8229 16.7706 13.25 17.6873 13 18.8123L7.75 39.7498C7.66667 39.9998 7.625 40.3748 7.625 40.8748C7.625 42.0414 8.05208 43.0206 8.90625 43.8123C9.76042 44.6039 10.7917 44.9998 12 44.9998ZM33.75 27.4998C34.4583 27.4998 35.0521 27.2602 35.5312 26.781C36.0104 26.3018 36.25 25.7081 36.25 24.9998C36.25 24.2914 36.0104 23.6977 35.5312 23.2185C35.0521 22.7393 34.4583 22.4998 33.75 22.4998C33.0417 22.4998 32.4479 22.7393 31.9688 23.2185C31.4896 23.6977 31.25 24.2914 31.25 24.9998C31.25 25.7081 31.4896 26.3018 31.9688 26.781C32.4479 27.2602 33.0417 27.4998 33.75 27.4998ZM38.75 22.4998C39.4583 22.4998 40.0521 22.2602 40.5312 21.781C41.0104 21.3018 41.25 20.7081 41.25 19.9998C41.25 19.2914 41.0104 18.6977 40.5312 18.2185C40.0521 17.7393 39.4583 17.4998 38.75 17.4998C38.0417 17.4998 37.4479 17.7393 36.9688 18.2185C36.4896 18.6977 36.25 19.2914 36.25 19.9998C36.25 20.7081 36.4896 21.3018 36.9688 21.781C37.4479 22.2602 38.0417 22.4998 38.75 22.4998ZM38.75 32.4998C39.4583 32.4998 40.0521 32.2602 40.5312 31.781C41.0104 31.3018 41.25 30.7081 41.25 29.9998C41.25 29.2914 41.0104 28.6977 40.5312 28.2185C40.0521 27.7393 39.4583 27.4998 38.75 27.4998C38.0417 27.4998 37.4479 27.7393 36.9688 28.2185C36.4896 28.6977 36.25 29.2914 36.25 29.9998C36.25 30.7081 36.4896 31.3018 36.9688 31.781C37.4479 32.2602 38.0417 32.4998 38.75 32.4998ZM43.75 27.4998C44.4583 27.4998 45.0521 27.2602 45.5312 26.781C46.0104 26.3018 46.25 25.7081 46.25 24.9998C46.25 24.2914 46.0104 23.6977 45.5312 23.2185C45.0521 22.7393 44.4583 22.4998 43.75 22.4998C43.0417 22.4998 42.4479 22.7393 41.9688 23.2185C41.4896 23.6977 41.25 24.2914 41.25 24.9998C41.25 25.7081 41.4896 26.3018 41.9688 26.781C42.4479 27.2602 43.0417 27.4998 43.75 27.4998ZM21.25 31.2498C21.7917 31.2498 22.2396 31.0727 22.5938 30.7185C22.9479 30.3643 23.125 29.9164 23.125 29.3748V26.8748H25.625C26.1667 26.8748 26.6146 26.6977 26.9688 26.3435C27.3229 25.9893 27.5 25.5414 27.5 24.9998C27.5 24.4581 27.3229 24.0102 26.9688 23.656C26.6146 23.3018 26.1667 23.1248 25.625 23.1248H23.125V20.6248C23.125 20.0831 22.9479 19.6352 22.5938 19.281C22.2396 18.9268 21.7917 18.7498 21.25 18.7498C20.7083 18.7498 20.2604 18.9268 19.9062 19.281C19.5521 19.6352 19.375 20.0831 19.375 20.6248V23.1248H16.875C16.3333 23.1248 15.8854 23.3018 15.5312 23.656C15.1771 24.0102 15 24.4581 15 24.9998C15 25.5414 15.1771 25.9893 15.5312 26.3435C15.8854 26.6977 16.3333 26.8748 16.875 26.8748H19.375V29.3748C19.375 29.9164 19.5521 30.3643 19.9062 30.7185C20.2604 31.0727 20.7083 31.2498 21.25 31.2498Z" fill="#2D9CDB"/>
</g>
</svg>
