<svg width="60" height="60" viewBox="0 0 60 60" fill="none" xmlns="http://www.w3.org/2000/svg">
<mask id="mask0_895_9180" style="mask-type:alpha" maskUnits="userSpaceOnUse" x="0" y="0" width="60" height="60">
<rect width="60" height="60" fill="#D9D9D9"/>
</mask>
<g mask="url(#mask0_895_9180)">
<path d="M14.9954 49.0389C13.8849 49.0389 12.9342 48.6435 12.1433 47.8527C11.3524 47.0618 10.957 46.1111 10.957 45.0005C10.957 43.89 11.3524 42.9393 12.1433 42.1484C12.9342 41.3576 13.8849 40.9622 14.9954 40.9622C16.1059 40.9622 17.0567 41.3576 17.8475 42.1484C18.6384 42.9393 19.0338 43.89 19.0338 45.0005C19.0338 46.1111 18.6384 47.0618 17.8475 47.8527C17.0567 48.6435 16.1059 49.0389 14.9954 49.0389ZM14.9954 34.0389C13.8849 34.0389 12.9342 33.6435 12.1433 32.8527C11.3524 32.0618 10.957 31.1111 10.957 30.0005C10.957 28.89 11.3524 27.9393 12.1433 27.1484C12.9342 26.3576 13.8849 25.9622 14.9954 25.9622C16.1059 25.9622 17.0567 26.3576 17.8475 27.1484C18.6384 27.9393 19.0338 28.89 19.0338 30.0005C19.0338 31.1111 18.6384 32.0618 17.8475 32.8527C17.0567 33.6435 16.1059 34.0389 14.9954 34.0389ZM14.9954 19.0389C13.8849 19.0389 12.9342 18.6435 12.1433 17.8527C11.3524 17.0618 10.957 16.1111 10.957 15.0005C10.957 13.89 11.3524 12.9393 12.1433 12.1484C12.9342 11.3576 13.8849 10.9622 14.9954 10.9622C16.1059 10.9622 17.0567 11.3576 17.8475 12.1484C18.6384 12.9393 19.0338 13.89 19.0338 15.0005C19.0338 16.1111 18.6384 17.0618 17.8475 17.8527C17.0567 18.6435 16.1059 19.0389 14.9954 19.0389ZM29.9869 34.0389C28.874 34.0389 27.9241 33.6435 27.1373 32.8527C26.3504 32.0618 25.957 31.1111 25.957 30.0005C25.957 28.89 26.3524 27.9393 27.1433 27.1484C27.9342 26.3576 28.8849 25.9622 29.9954 25.9622C31.1059 25.9622 32.0567 26.3576 32.8475 27.1484C33.6384 27.9393 34.0338 28.89 34.0338 30.0005L29.9869 34.0389ZM29.9954 19.0389C28.8849 19.0389 27.9342 18.6435 27.1433 17.8527C26.3524 17.0618 25.957 16.1111 25.957 15.0005C25.957 13.89 26.3524 12.9393 27.1433 12.1484C27.9342 11.3576 28.8849 10.9622 29.9954 10.9622C31.1059 10.9622 32.0567 11.3576 32.8475 12.1484C33.6384 12.9393 34.0338 13.89 34.0338 15.0005C34.0338 16.1111 33.6384 17.0618 32.8475 17.8527C32.0567 18.6435 31.1059 19.0389 29.9954 19.0389ZM27.4954 49.3274V45.3371L41.4666 31.3659L45.4569 35.3562L31.4857 49.3274H27.4954ZM44.9954 19.0389C43.8849 19.0389 42.9342 18.6435 42.1433 17.8527C41.3525 17.0618 40.957 16.1111 40.957 15.0005C40.957 13.89 41.3525 12.9393 42.1433 12.1484C42.9342 11.3576 43.8849 10.9622 44.9954 10.9622C46.1059 10.9622 47.0567 11.3576 47.8475 12.1484C48.6384 12.9393 49.0338 13.89 49.0338 15.0005C49.0338 16.1111 48.6384 17.0618 47.8475 17.8527C47.0567 18.6435 46.1059 19.0389 44.9954 19.0389ZM46.9905 33.8466L42.9762 29.8323L44.5002 28.3323C44.872 27.9605 45.3055 27.7746 45.8007 27.7746C46.2959 27.7746 46.7085 27.9605 47.0386 28.3323L48.4905 29.7842C48.8623 30.1143 49.0442 30.527 49.0362 31.0222C49.0282 31.5173 48.8463 31.9508 48.4905 32.3226L46.9905 33.8466Z" fill="#2D9CDB"/>
</g>
</svg>
